<svg width="144" height="29" viewBox="0 0 144 29" fill="none" xmlns="http://www.w3.org/2000/svg">
<g clip-path="url(#clip0_184_618)">
<path d="M45.6239 15.6788H51.4085V17.9395H45.6239V25.981H52.7278V28.5H42.9854V5.44118H52.7278V7.96021H45.6239V15.6788Z" fill="white"/>
<path d="M56.6452 9.9948V28.5H54.2773V5.44118H57.6262L63.1064 22.0086V5.44118H65.4405V28.5H62.7005L56.6452 9.9948Z" fill="white"/>
<path d="M67.0857 22.816V11.1252C67.0857 7.66955 68.8786 5.44118 72.4982 5.44118C76.1515 5.44118 77.9444 7.66955 77.9444 11.1252V22.816C77.9444 26.2393 76.1515 28.5 72.4982 28.5C68.8786 28.5 67.0857 26.2393 67.0857 22.816ZM69.6905 10.996V22.9452C69.6905 25.0121 70.6038 26.207 72.4982 26.207C74.4264 26.207 75.3058 25.0121 75.3058 22.9452V10.996C75.3058 8.96135 74.4264 7.73414 72.4982 7.73414C70.6038 7.73414 69.6905 8.96135 69.6905 10.996Z" fill="white"/>
<path d="M78.8765 5.44118H81.5486L85.3921 25.3351L89.3844 5.44118H91.8203L87.2188 28.5H83.3283L78.8765 5.44118Z" fill="white"/>
<path d="M98.8868 23.7203H92.8995L91.8292 28.5H89.3933L94.0838 5.44118H97.9063L102.549 28.5H99.9102L98.8868 23.7203ZM95.8426 8.50923L93.2376 21.5565H98.5147L95.8426 8.50923Z" fill="white"/>
<path d="M108.367 28.5H105.762V7.96021H101.399V5.44118H112.73V7.96021H108.367V28.5Z" fill="white"/>
<path d="M114.535 5.44118H117.174V28.5H114.535V5.44118Z" fill="white"/>
<path d="M118.819 22.816V11.1252C118.819 7.66955 120.613 5.44118 124.232 5.44118C127.886 5.44118 129.678 7.66955 129.678 11.1252V22.816C129.678 26.2393 127.886 28.5 124.232 28.5C120.613 28.5 118.819 26.2393 118.819 22.816ZM121.424 10.996V22.9452C121.424 25.0121 122.338 26.207 124.232 26.207C126.16 26.207 127.039 25.0121 127.039 22.9452V10.996C127.039 8.96135 126.16 7.73414 124.232 7.73414C122.338 7.73414 121.424 8.96135 121.424 10.996Z" fill="white"/>
<path d="M133.641 9.9948V28.5H131.273V5.44118H134.621L140.101 22.0086V5.44118H143.3V28.5H139.696L133.641 9.9948Z" fill="white"/>
<path d="M0 5.44118H33.573V3.79412H31.9551L16.5843 0.5L1.61798 3.79412H0V5.44118Z" fill="#DEFF76"/>
<path fill-rule="evenodd" clip-rule="evenodd" d="M1.61755 5.44118L0.0205078 5.44119V28.5H33.5385V18.4649V16.3597V7.91178H35.8855C37.6766 7.91178 38.3869 9.65864 38.3869 11.5266V13.5132C38.3869 15.7667 37.2443 16.3597 35.3296 16.3597H35.0675V18.4649H35.2369C37.2443 18.4649 38.3869 19.2061 38.3869 21.5486V24.8102C38.3869 26.2038 38.9575 27.907 39.2355 28.5H41.6752C41.3265 27.6037 40.7957 25.618 40.7957 24.8398V21.6079C40.7957 19.3841 40.0545 17.8422 38.0781 17.2788C39.931 16.7155 40.7648 15.2922 40.7648 13.0092V11.319C40.7648 8.23536 39.3442 5.44113 35.9472 5.44113L32.1283 5.44118L26.4071 14.7858C26.1098 15.2713 26.0814 15.879 26.3318 16.3911L32.2543 28.5H27.5052L23.1129 19.2206L22.2301 16.8185C21.885 15.8794 21.9788 14.8314 22.485 13.9713L27.5052 5.44118H21.0346V28.5H16.6637V12.159L13.4695 28.5H9.09858L5.65227 12.3937V28.5H1.61755V5.44118ZM8.04788 5.44118L11.4522 22.181L14.6043 5.44118H8.04788Z" fill="#DEFF76"/>
</g>
<defs>
<clipPath id="clip0_184_618">
<rect width="144" height="28" fill="white" transform="translate(0 0.5)"/>
</clipPath>
</defs>
</svg>
