<svg width="16" height="21" viewBox="0 0 16 21" fill="none" xmlns="http://www.w3.org/2000/svg">
<path d="M5.36554 12.3899L6.25962 12.1848C6.27842 12.1805 6.30947 12.1734 6.34739 12.1613C6.59409 12.0954 6.80551 11.9371 6.93707 11.7196C7.06864 11.502 7.11018 11.2424 7.05286 10.9952C7.0516 10.9898 7.05039 10.9846 7.04913 10.9792C7.01978 10.8608 6.96834 10.7488 6.89745 10.6492C6.79726 10.5231 6.67328 10.4175 6.53243 10.3385C6.36662 10.2446 6.19307 10.1648 6.01369 10.1001L5.03343 9.74486C4.48327 9.54184 3.9332 9.34395 3.37792 9.15097C3.01785 9.02377 2.71273 8.91222 2.44762 8.83079C2.39761 8.81546 2.34238 8.80019 2.29753 8.78481C1.97703 8.68733 1.75181 8.64691 1.56128 8.64561C1.434 8.64097 1.30722 8.66388 1.18972 8.71281C1.06728 8.76522 0.957309 8.84273 0.867015 8.94015C0.822116 8.99082 0.779909 9.04379 0.740505 9.09882C0.703574 9.1549 0.669724 9.21293 0.639058 9.27261C0.60526 9.33664 0.576242 9.40302 0.552226 9.47121C0.370265 10.005 0.27964 10.5653 0.284092 11.1287C0.287334 11.6381 0.301128 12.2919 0.58322 12.735C0.651201 12.8488 0.742431 12.9471 0.851025 13.0236C1.05195 13.1614 1.25506 13.1795 1.46632 13.1946C1.78204 13.2171 2.08793 13.1401 2.39283 13.0702L5.36306 12.3891L5.36554 12.3899Z" fill="white"/>
<path d="M15.3404 7.67851C15.0962 7.17003 14.768 6.70585 14.3694 6.30516C14.3179 6.25432 14.2627 6.20725 14.2042 6.16438C14.1502 6.12418 14.0941 6.08682 14.0362 6.0524C13.9766 6.02 13.9153 5.99076 13.8526 5.96485C13.7287 5.91652 13.5958 5.89476 13.4627 5.90092C13.3354 5.90812 13.2113 5.94271 13.0988 6.00232C12.9283 6.08649 12.7438 6.22165 12.4985 6.44807C12.4645 6.48151 12.422 6.5192 12.3837 6.55476C12.1812 6.74371 11.956 6.97662 11.688 7.24782C11.274 7.66312 10.8662 8.08067 10.4611 8.50274L9.73601 9.24898C9.60323 9.38534 9.48233 9.53262 9.37461 9.68927C9.28283 9.82165 9.21793 9.97051 9.18348 10.1275C9.16353 10.248 9.16644 10.371 9.1921 10.4904C9.19337 10.4958 9.19452 10.5009 9.19579 10.5063C9.25305 10.7535 9.40467 10.9689 9.61873 11.1071C9.83279 11.2454 10.0926 11.2957 10.3433 11.2475C10.3831 11.2418 10.4139 11.235 10.4326 11.2305L14.2983 10.344C14.6029 10.2741 14.9121 10.2101 15.1858 10.0524C15.3693 9.94673 15.5439 9.842 15.6637 9.63074C15.7277 9.51467 15.7664 9.38654 15.7774 9.25465C15.8367 8.73178 15.5616 8.13794 15.3404 7.67851Z" fill="white"/>
<path d="M8.42141 9.29214C8.70152 8.94289 8.70081 8.42225 8.72587 7.99663C8.81017 6.57458 8.89898 5.15236 8.96933 3.72952C8.99626 3.1906 9.05473 2.65897 9.02242 2.11595C8.99582 1.66798 8.99252 1.15364 8.70757 0.786009C8.20455 0.137721 7.13191 0.191002 6.40005 0.291563C6.17583 0.32245 5.95128 0.363976 5.72849 0.417058C5.50569 0.47014 5.28521 0.528115 5.0695 0.596688C4.36721 0.824998 3.37997 1.24409 3.2128 2.04721C3.11855 2.50123 3.34189 2.96567 3.51511 3.38002C3.7251 3.88229 4.01198 4.33473 4.2734 4.80753C4.96454 6.05574 5.66853 7.29616 6.37054 8.53789C6.5802 8.90858 6.80871 9.37805 7.21429 9.57011C7.24111 9.58173 7.26848 9.59204 7.29634 9.60093C7.47819 9.66927 7.67647 9.68242 7.86596 9.63873C7.8774 9.63611 7.88861 9.63354 7.89976 9.63098C8.07474 9.58375 8.23319 9.48933 8.3575 9.35814C8.37992 9.33725 8.4013 9.31527 8.42141 9.29214Z" fill="white"/>
<path d="M8.08618 13.0994C7.97687 12.9467 7.82168 12.8323 7.6429 12.7725C7.46408 12.7127 7.27079 12.7106 7.09059 12.7665C7.04828 12.7804 7.00706 12.7975 6.96722 12.8173C6.90561 12.8485 6.8468 12.8848 6.79152 12.926C6.63039 13.0445 6.49475 13.1985 6.37121 13.3528C6.33988 13.3922 6.31125 13.4446 6.27399 13.4782L5.65221 14.3271C5.29978 14.8027 4.95223 15.2795 4.6076 15.7639C4.38272 16.0765 4.18817 16.3406 4.03457 16.5742C4.00544 16.6182 3.97522 16.6673 3.94752 16.7065C3.76336 16.9893 3.65911 17.1956 3.60558 17.3795C3.56535 17.5016 3.5526 17.631 3.56826 17.7586C3.58541 17.8914 3.63047 18.0191 3.70054 18.1335C3.7378 18.1909 3.77798 18.2464 3.8209 18.2998C3.86547 18.3511 3.91284 18.4 3.96274 18.4462C4.01605 18.4967 4.07304 18.5432 4.13332 18.5853C4.56248 18.8816 5.03231 19.0946 5.52647 19.2591C5.93777 19.3946 6.36522 19.4757 6.79789 19.5003C6.87148 19.504 6.94529 19.5024 7.01865 19.4955C7.08663 19.4896 7.15429 19.4803 7.22133 19.4673C7.28832 19.4518 7.35438 19.4327 7.41934 19.4102C7.54569 19.3633 7.66071 19.2906 7.75705 19.1968C7.84822 19.1062 7.9184 18.9969 7.96264 18.8766C8.03452 18.6988 8.08179 18.473 8.11289 18.1378C8.11559 18.0902 8.12245 18.033 8.12724 17.9806C8.15175 17.7025 8.16301 17.3758 8.18104 16.9918C8.21143 16.4011 8.23528 15.8129 8.25413 15.2232C8.25413 15.2232 8.29419 14.1751 8.29408 14.1745C8.30321 13.933 8.29573 13.6653 8.22825 13.4248C8.19857 13.3096 8.15065 13.1997 8.08618 13.0994Z" fill="white"/>
<path d="M15.1046 14.74C14.9749 14.5988 14.791 14.458 14.5009 14.2839C14.4591 14.2607 14.41 14.2298 14.3647 14.2029C14.1233 14.0587 13.8324 13.9071 13.4926 13.7239C12.9706 13.4395 12.4483 13.1621 11.921 12.8872L10.9894 12.3968C10.9411 12.3828 10.892 12.3482 10.8465 12.3264C10.6675 12.2414 10.4778 12.1621 10.2808 12.1257C10.2129 12.1128 10.1441 12.1057 10.0749 12.1046C10.0304 12.104 9.98586 12.1067 9.94168 12.1126C9.75538 12.1412 9.58298 12.2276 9.44894 12.3592C9.3149 12.4909 9.22609 12.6612 9.1952 12.8459C9.18097 12.9633 9.18531 13.0822 9.20801 13.1984C9.25357 13.4444 9.36425 13.6879 9.47878 13.901L9.9763 14.8264C10.2531 15.3484 10.5333 15.8673 10.8205 16.3846C11.0057 16.7221 11.16 17.0109 11.3044 17.2502C11.3317 17.2952 11.3628 17.3437 11.3862 17.3854C11.562 17.6731 11.7033 17.8542 11.8465 17.9841C11.9392 18.073 12.0504 18.1407 12.1723 18.1825C12.3004 18.2246 12.4359 18.2396 12.5702 18.2264C12.6385 18.2183 12.7063 18.2067 12.7733 18.1915C12.8394 18.1738 12.9044 18.1528 12.9682 18.1285C13.0372 18.1028 13.1041 18.0721 13.1686 18.0367C13.5468 17.8262 13.8954 17.5671 14.2054 17.2661C14.5773 16.903 14.906 16.5069 15.1617 16.0535C15.1972 15.9894 15.228 15.9228 15.2538 15.8542C15.2779 15.7908 15.2988 15.7262 15.3163 15.6607C15.3314 15.594 15.343 15.5267 15.351 15.4588C15.3637 15.3257 15.3481 15.1913 15.3053 15.0646C15.2631 14.9431 15.1946 14.8323 15.1046 14.74Z" fill="white"/>
</svg>
